<?xml version="1.0" encoding="utf-8"?>
<!-- Generator: Adobe Illustrator 21.0.0, SVG Export Plug-In . SVG Version: 6.00 Build 0)  -->
<svg version="1.1" id="Слой_1" xmlns="http://www.w3.org/2000/svg" xmlns:xlink="http://www.w3.org/1999/xlink" x="0px" y="0px"
	 viewBox="0 0 160.7 180.8" style="enable-background:new 0 0 160.7 180.8;" xml:space="preserve">
<style type="text/css">
	.st0{display:none;}
	.st1{display:inline;fill:#A90201;}
	.st2{display:inline;fill:#333333;}
	.st3{display:inline;}
	.st4{fill:#A90201;}
	.st5{fill:#333333;}
	.st6{fill:none;stroke:#DB0000;stroke-width:2;stroke-miterlimit:10;}
</style>
<g id="Слой_1_1_" class="st0">
	<circle class="st1" cx="80.3" cy="96.6" r="37.6"/>
</g>
<g id="Слой_3" class="st0">
	<circle class="st2" cx="80.3" cy="96.6" r="37.6"/>
</g>
<g id="Слой_4" class="st0">
	<g class="st3">
		<rect x="58.2" y="85" class="st4" width="44.3" height="3.8"/>
		<rect x="58.2" y="94.8" class="st4" width="44.3" height="3.8"/>
		<rect x="58.2" y="104.5" class="st4" width="44.3" height="3.8"/>
	</g>
</g>
<g id="Слой_2" class="st0">
	<g class="st3">
		<path class="st5" d="M102.5,99.4H83.1v19.7h-5.4V99.4H58.2V94h19.4V74.2h5.4V94h19.4V99.4z"/>
	</g>
</g>
<g id="Слой_5" class="st0">
	<g class="st3">
		<path class="st5" d="M65.6,65.6l-3.4,4.9v17.8h-5.7v-49h5.7v22.4l3.6-5.9L77,39.3h6.9L69.1,60.6l16.8,27.7h-6.7L65.6,65.6z"/>
	</g>
	<g class="st3">
		<path class="st5" d="M89.6,118.7h-5v18.5h-5.7v-49h12c9.2,0,14.4,5.5,14.4,14.8c0,8.1-3.6,13.4-9.7,15.1l11.3,19h-6.5L89.6,118.7z
			 M84.6,113.3h6.2c5.7,0,8.6-3.6,8.6-10.1c0-6.4-2.9-9.7-8.5-9.7h-6.2V113.3z"/>
	</g>
	<g class="st3">
		<path class="st5" d="M96,74.9v9h-2l-0.2-1.3c-0.5,0.9-1.5,1.6-3,1.6c-2.5,0-4.2-1.7-4.2-4.2c0-2.8,1.9-4.2,4.9-4.2h2v-1
			c0-1.6-0.6-2.5-2-2.5c-1.1,0-1.9,0.6-2.1,1.8h-2.5c0.1-2.6,1.9-4.2,4.6-4.2C94.5,70,96,71.7,96,74.9z M93.5,78h-2
			c-1.5,0-2.4,0.7-2.4,2c0,1.2,0.8,2,2.2,2s2.2-0.9,2.2-2.2L93.5,78L93.5,78z"/>
	</g>
</g>
<g id="Слой_6">
	<line class="st6" x1="104.4" y1="40.2" x2="40.4" y2="123.7"/>
	<line class="st6" x1="124.4" y1="40.2" x2="60.4" y2="123.7"/>
</g>
</svg>
