<?xml version="1.0" encoding="utf-8"?>
<!-- Generator: Adobe Illustrator 21.0.0, SVG Export Plug-In . SVG Version: 6.00 Build 0)  -->
<svg version="1.1" id="Слой_1" xmlns="http://www.w3.org/2000/svg" xmlns:xlink="http://www.w3.org/1999/xlink" x="0px" y="0px"
	 viewBox="0 0 78.7 78.7" style="enable-background:new 0 0 78.7 78.7;" xml:space="preserve">
<style type="text/css">
	.st0{fill:#DB0000;}
	.st1{display:none;}
	.st2{display:inline;fill:#333333;}
	.st3{display:inline;}
	.st4{fill:#A90201;}
	.st5{fill:#333333;}
	.st6{display:inline;fill:none;stroke:#333333;stroke-width:2;stroke-miterlimit:10;}
	.st7{display:inline;fill:none;stroke:#A90201;stroke-width:2;stroke-miterlimit:10;}
	.st8{fill:none;stroke:#333333;stroke-width:4;stroke-miterlimit:10;}
</style>
<g id="Слой_1_1_">
	<circle class="st0" cx="39.3" cy="39.4" r="37.6"/>
</g>
<g id="Слой_3" class="st1">
	<circle class="st2" cx="39.3" cy="45.6" r="37.6"/>
</g>
<g id="Слой_4" class="st1">
	<g class="st3">
		<rect x="17.2" y="34" class="st4" width="44.3" height="3.8"/>
		<rect x="17.2" y="43.8" class="st4" width="44.3" height="3.8"/>
		<rect x="17.2" y="53.5" class="st4" width="44.3" height="3.8"/>
	</g>
</g>
<g id="Слой_2" class="st1">
	<g class="st3">
		<path class="st5" d="M61.5,48.4H42.1v19.7h-5.4V48.4H17.2V43h19.4V23.2h5.4V43h19.4V48.4z"/>
	</g>
</g>
<g id="Слой_5" class="st1">
	<g class="st3">
		<path class="st5" d="M24.6,14.6l-3.4,4.9v17.8h-5.7v-49h5.7v22.4l3.6-5.9L36-11.7h6.9L28.1,9.6l16.8,27.7h-6.7L24.6,14.6z"/>
	</g>
	<g class="st3">
		<path class="st5" d="M48.6,67.7h-5v18.5h-5.7v-49h12c9.2,0,14.4,5.5,14.4,14.8c0,8.1-3.6,13.4-9.7,15.1l11.3,19h-6.5L48.6,67.7z
			 M43.6,62.3h6.2c5.7,0,8.6-3.6,8.6-10.1c0-6.4-2.9-9.7-8.5-9.7h-6.2V62.3z"/>
	</g>
	<g class="st3">
		<path class="st5" d="M55,23.9v9h-2l-0.2-1.3c-0.5,0.9-1.5,1.6-3,1.6c-2.5,0-4.2-1.7-4.2-4.2c0-2.8,1.9-4.2,4.9-4.2h2v-1
			c0-1.6-0.6-2.5-2-2.5c-1.1,0-1.9,0.6-2.1,1.8h-2.5c0.1-2.6,1.9-4.2,4.6-4.2C53.5,19,55,20.7,55,23.9z M52.5,27h-2
			c-1.5,0-2.4,0.7-2.4,2c0,1.2,0.8,2,2.2,2s2.2-0.9,2.2-2.2L52.5,27L52.5,27z"/>
	</g>
</g>
<g id="Слой_6" class="st1">
	<line class="st6" x1="63.4" y1="-10.8" x2="-0.6" y2="72.7"/>
	<line class="st6" x1="83.4" y1="-10.8" x2="19.4" y2="72.7"/>
</g>
<g id="Слой_7" class="st1">
	<line class="st7" x1="69.4" y1="-13.8" x2="5.4" y2="69.7"/>
	<line class="st7" x1="73" y1="5.3" x2="9" y2="88.9"/>
	<line class="st7" x1="22.4" y1="-13.8" x2="66.5" y2="43.7"/>
</g>
<g id="Слой_8">
	<polyline class="st8" points="15.7,50.6 39.4,28.1 63,50.4 	"/>
</g>
</svg>
